<svg width="165" height="154" viewBox="0 0 165 154" version="1.1" xmlns="http://www.w3.org/2000/svg" xmlns:xlink="http://www.w3.org/1999/xlink"><title>Group</title><desc>Created with Sketch.</desc><defs><path d="M62.5,115.26053 C59.7826087,115.26053 57.0652174,114.445313 54.8913043,112.679008 C51.9021739,110.233356 48.9130435,107.923573 45.7880435,105.613791 C23.2336957,88.2224864 0,70.1518342 0,42.0268342 C0,23.8203125 10.1902174,7.7877038 25.4076087,2.08118207 C37.3641304,-2.26664402 49.7282609,1.13009511 58.2880435,11.3203125 C59.375,12.5431386 60.8695652,13.2224864 62.5,13.2224864 C64.1304348,13.2224864 65.625,12.5431386 66.7119565,11.3203125 C75.4076087,1.13009511 87.6358696,-2.26664402 99.5923913,2.08118207 C114.809783,7.65183424 125,23.6844429 125,42.0268342 C125,70.1518342 101.766304,88.0866168 79.3478261,105.477921 C76.2228261,107.923573 73.2336957,110.233356 70.1086957,112.679008 C67.9347826,114.445313 65.2173913,115.26053 62.5,115.26053 Z" id="path-1"/><filter x="-28%" y="-21.7%" width="156%" height="160.9%" filterUnits="objectBoundingBox" id="filter-2"><feOffset dx="0" dy="10" in="SourceAlpha" result="shadowOffsetOuter1"/><feGaussianBlur stdDeviation="10" in="shadowOffsetOuter1" result="shadowBlurOuter1"/><feComposite in="shadowBlurOuter1" in2="SourceAlpha" operator="out" result="shadowBlurOuter1"/><feColorMatrix values="0 0 0 0 0 0 0 0 0 0 0 0 0 0 0 0 0 0 0.3 0" type="matrix" in="shadowBlurOuter1"/></filter></defs><g id="Page-1" stroke="none" stroke-width="1" fill="none" fill-rule="evenodd"><g id="Launch-favoris" transform="translate(-878.000000, -161.000000)" fill-rule="nonzero"><g id="title" transform="translate(717.000000, 90.000000)"><g id="Group" transform="translate(181.000000, 80.000000)"><g id="Shape"><g><use fill="#000" fill-opacity="1" filter="url(#filter-2)" xlink:href="#path-1"/><use fill="#FC6969" fill-rule="evenodd" xlink:href="#path-1"/><path stroke="#FFF" stroke-width="8" d="M62.5,111.26053 C60.5510573,111.26053 58.7660489,110.673356 57.4136748,109.574552 C54.4715002,107.167288 51.4473342,104.82271 48.1656077,102.397086 C31.6872779,89.6898583 24.4465463,83.4921368 17.4910357,75.2632748 C8.5508478,64.686399 4,54.0384841 4,42.0268342 C4,25.4243531 13.2218287,10.9228514 26.8121025,5.82649878 C37.1794202,2.05677786 47.7663709,5.01349383 55.225224,13.8930808 L55.2984062,13.9777679 C57.1441892,16.0542737 59.7265541,17.2224864 62.5,17.2224864 C65.2734459,17.2224864 67.8558108,16.0542737 69.7015938,13.9777679 C77.3663932,4.99684021 87.8386465,2.06334757 98.2254191,5.84035576 C111.785432,10.804299 121,25.2943825 121,42.0268342 C121,53.6551642 116.732058,63.9838104 108.35359,74.2020444 C101.727542,82.2830566 94.1785363,88.8918934 79.1754357,100.548371 C78.5603907,101.026222 78.2596311,101.259607 76.8960438,102.317421 C75.5846915,103.34365 74.5621647,104.140204 72.2724984,105.921056 C69.9765669,107.70678 68.9497277,108.506694 67.6434626,109.528988 C66.2339511,110.673356 64.4489427,111.26053 62.5,111.26053 Z"/></g><path d="M81.1141304,4.25509511 C100,-2.40251359 122.282609,15.3963995 122.282609,42.0268342 C122.282609,72.5974864 66.9836957,114.037704 63.451087,111.320312 C102.581522,64.1735734 122.282609,34.1463995 81.1141304,4.25509511 Z" fill-opacity=".3" fill="#FFF"/><path d="M43.4782609,82.6518342 C42.9347826,82.6518342 42.2554348,82.5159647 41.8478261,82.108356 C32.4728261,74.6355299 26.2228261,68.3855299 21.7391304,62.1355299 C20.923913,60.9127038 21.1956522,59.282269 22.4184783,58.3311821 C23.6413043,57.5159647 25.2717391,57.7877038 26.2228261,59.0105299 C30.4347826,64.8529212 36.2771739,70.6953125 45.2445652,77.8963995 C46.4673913,78.8474864 46.6032609,80.4779212 45.6521739,81.7007473 C44.9728261,82.3800951 44.2934783,82.6518342 43.4782609,82.6518342 Z M18.0706522,50.858356 C16.8478261,50.858356 15.7608696,50.0431386 15.4891304,48.8203125 C14.9456522,46.782269 14.673913,44.7442255 14.2663043,42.5703125 C14.1304348,41.0757473 15.0815217,39.7170516 16.576087,39.5811821 C18.0706522,39.4453125 19.4293478,40.3963995 19.5652174,41.8909647 C19.8369565,43.9290082 20.1086957,45.6953125 20.5163043,47.3257473 C20.923913,48.8203125 20.1086957,50.3148777 18.6141304,50.7224864 C18.4782609,50.858356 18.3423913,50.858356 18.0706522,50.858356 Z" fill-opacity=".4" fill="#FFF"/></g></g></g></g></g></svg>