<svg xmlns="http://www.w3.org/2000/svg" xmlns:xlink="http://www.w3.org/1999/xlink" width="41" height="21"><defs><path id="b" d="M54.45 37c-.3013889 0-.6458333 0-.9902778.0430556h-.1291666c-.0430556 0-.1291667 0-.1722223.0430555-4.0902777.6027778-7.2763889 3.9180556-10.3763889 7.1041667-2.5833333 2.6694444-5.2527777 5.425-7.8361111 5.8555555-.2583333.0430556-.4736111.0430556-.6458333.0430556-2.1527778 0-3.875-1.7222222-3.875-3.875s1.7222222-3.875 3.875-3.875c.1291667 0 .2583333 0 .3875.0430555.9902778.1291667 2.1097222.6888889 3.4013889 1.7222223.3013889.2583333.8180555.4305555 1.2055555.4305555 1.3777778 0 2.6263889-1.5069444 2.8847223-2.2819444.3013889-.8180556.0430555-1.7222222-.6027778-2.2388889-1.9805556-1.5930556-3.875-2.5402778-5.7263889-2.8847222-.0861111 0-.1722222-.0430556-.3013889-.0430556C35.1180556 37.0430556 34.6875 37 34.3 37c-5.1236111 0-9.3 4.1763889-9.3 9.3 0 5.1236111 4.1763889 9.3 9.3 9.3.2583333 0 .5166667 0 .7319444-.0430556C39.7680556 55.2125 43.4708333 51.3805556 46.7 48.0222222c2.5402778-2.6694444 4.9944444-5.1666666 7.2333333-5.5111111C54.1055556 42.425 54.2777778 42.425 54.45 42.425c2.1527778 0 3.875 1.7222222 3.875 3.875s-1.7222222 3.875-3.875 3.875c-.1722222 0-.3444444 0-.6027778-.0430556-.1291666-.0430555-.2583333-.0430555-.4305555-.0861111-.8611111-.2152777-1.7222223-.6458333-2.7125-1.3777777-.3444445-.2583334-.7319445-.3875-1.1625-.3875-1.4208334 0-2.6263889 1.5069444-2.8847223 2.3680555-.3013888.8611111-.0430555 1.7222222.6458334 2.2388889C49.7138889 54.6958333 52.0819444 55.6 54.45 55.6c5.1236111-.0430556 9.3-4.2194444 9.3-9.3s-4.1763889-9.3-9.3-9.3z"/><filter id="a" width="200%" height="200%" x="-50%" y="-50%" filterUnits="objectBoundingBox"><feOffset dx="1" dy="1" in="SourceAlpha" result="shadowOffsetOuter1"/><feGaussianBlur in="shadowOffsetOuter1" result="shadowBlurOuter1" stdDeviation=".5"/><feColorMatrix in="shadowBlurOuter1" values="0 0 0 0 0 0 0 0 0 0 0 0 0 0 0 0 0 0 0.33 0"/></filter></defs><g fill="none" fill-rule="evenodd" transform="translate(-25 -37)"><use fill="#000" filter="url(#a)" xlink:href="#b"/><use fill="#FFF" xlink:href="#b"/></g></svg>