<svg width="300" height="120" viewBox="0 0 253 101" version="1.1" xmlns="http://www.w3.org/2000/svg" xmlns:xlink="http://www.w3.org/1999/xlink"><title>layer</title><desc>Created with Sketch.</desc><defs><rect id="path-1" x="0" y="0" width="255" height="101"/><circle id="path-3" cx="126" cy="120" r="120"/><mask id="mask-4" maskContentUnits="userSpaceOnUse" maskUnits="objectBoundingBox" x="0" y="0" width="240" height="240" fill="#fff"><use xlink:href="#path-3"/></mask><path d="M22.6479592,13.2405322 L19.9489796,12.4636643 C19.7377551,11.569089 19.3857143,10.7451382 18.9163265,9.99181167 L20.3010204,7.51995906 C20.394898,7.33162743 20.3714286,7.0962129 20.2306122,6.95496418 L19.0806122,5.80143296 C18.9397959,5.66018424 18.705102,5.61310133 18.5173469,5.7308086 L16.0530612,7.11975435 C15.372449,6.69600819 14.6214286,6.36642784 13.8234694,6.15455476 L13.0255102,3.3531218 C12.9785714,3.14124872 12.7908163,3 12.5795918,3 L10.9367347,3 C10.7255102,3 10.5377551,3.14124872 10.4908163,3.3531218 L9.73979592,6.01330604 C8.84795918,6.20163767 8.00306122,6.53121801 7.25204082,6.95496418 L4.71734694,5.54247697 C4.52959184,5.44831116 4.29489796,5.47185261 4.15408163,5.61310133 L3.00408163,6.76663255 C2.86326531,6.90788127 2.81632653,7.1432958 2.93367347,7.33162743 L4.2244898,9.75639713 C3.68469388,10.580348 3.30918367,11.4749232 3.0744898,12.4401228 L0.352040816,13.2169908 C0.140816327,13.2640737 0,13.4524053 0,13.6642784 L0,15.3121801 C0,15.5240532 0.140816327,15.7123849 0.352040816,15.7594678 L3.05102041,16.5598772 C3.2622449,17.4544524 3.61428571,18.2784033 4.08367347,19.0317298 L2.69897959,21.5035824 C2.60510204,21.691914 2.62857143,21.9273286 2.76938776,22.0685773 L3.91938776,23.2221085 C4.06020408,23.3633572 4.29489796,23.4104401 4.48265306,23.2927329 L6.94693878,21.9037871 C7.76836735,22.4216991 8.68367347,22.7748209 9.66938776,22.986694 L10.4204082,25.6468782 C10.4673469,25.8587513 10.655102,26 10.8663265,26 L12.5091837,26 C12.7204082,26 12.9081633,25.8587513 12.955102,25.6468782 L13.7530612,22.8454452 C14.6214286,22.6100307 15.4428571,22.2333675 16.1938776,21.7389969 L18.6112245,23.0808598 C18.7989796,23.1750256 19.0336735,23.1514841 19.1744898,23.0102354 L20.3244898,21.8567042 C20.4653061,21.7154555 20.5122449,21.4800409 20.394898,21.2917093 L18.9867347,18.7492323 C19.3857143,18.0429887 19.6908163,17.2896622 19.8785714,16.4892528 L22.6010204,15.7123849 C22.8591837,15.7359263 23,15.5475947 23,15.3357216 L23,13.6878199 C23,13.4759468 22.8591837,13.2876151 22.6479592,13.2405322 Z M11.73493,16.836942 C10.4585055,16.836942 9.41415816,15.7893879 9.41415816,14.5090439 C9.41415816,13.2287 10.4585055,12.1811458 11.73493,12.1811458 C13.0113546,12.1811458 14.0557019,13.2287 14.0557019,14.5090439 C14.0557019,15.7893879 13.0113546,16.836942 11.73493,16.836942 Z" id="path-5"/><mask id="mask-6" maskContentUnits="userSpaceOnUse" maskUnits="objectBoundingBox" x="0" y="0" width="23" height="23" fill="#fff"><use xlink:href="#path-5"/></mask><ellipse id="path-7" cx="184.633" cy="19.5" rx="9.055" ry="9"/><mask id="mask-8" maskContentUnits="userSpaceOnUse" maskUnits="objectBoundingBox" x="0" y="0" width="18.109" height="18" fill="#fff"><use xlink:href="#path-7"/></mask><circle id="path-9" cx="35.078" cy="11" r="5.5"/><mask id="mask-10" maskContentUnits="userSpaceOnUse" maskUnits="objectBoundingBox" x="0" y="0" width="11" height="11" fill="#fff"><use xlink:href="#path-9"/></mask></defs><g id="Page-1" stroke="none" stroke-width="1" fill="none" fill-rule="evenodd"><g id="Launch-Image-folders" transform="translate(-833.000000, -979.000000)"><g id="reglages" transform="translate(960.500000, 1029.500000) scale(1, -1) translate(-960.500000, -1029.500000) translate(833.000000, 979.000000)"><g id="layer" transform="translate(0.000000, -149.000000)"><g id="bg" transform="translate(0.000000, 149.000000)"><mask id="mask-2" fill="#fff"><use xlink:href="#path-1"/></mask><circle id="Oval-3" fill-opacity=".85" fill="#FFF" mask="url(#mask-2)" cx="126" cy="-29" r="130"/></g><use id="bg-border" stroke-opacity=".3" stroke="#000" mask="url(#mask-4)" stroke-width="6" stroke-linejoin="round" stroke-dasharray="8,6" xlink:href="#path-3"/><g id="deco-settings" transform="translate(26.000000, 151.000000)"><circle id="Oval_1" fill-opacity=".6" fill="#000" opacity=".2" cx="68.578" cy="67.5" r="5"/><path d="M115.556122,62.9119754 L112.153061,61.9324463 C111.886735,60.8045036 111.442857,59.765609 110.85102,58.8157625 L112.596939,55.6990788 C112.715306,55.4616172 112.685714,55.1647902 112.508163,54.986694 L111.058163,53.5322416 C110.880612,53.3541453 110.584694,53.2947799 110.347959,53.4431934 L107.240816,55.1944729 C106.382653,54.6601842 105.435714,54.2446264 104.429592,53.9774821 L103.423469,50.4452405 C103.364286,50.1780962 103.127551,50 102.861224,50 L100.789796,50 C100.523469,50 100.286735,50.1780962 100.227551,50.4452405 L99.2806122,53.7993859 C98.1561224,54.0368475 97.0908163,54.4524053 96.1438776,54.986694 L92.9479592,53.2057318 C92.7112245,53.087001 92.4153061,53.1166837 92.2377551,53.2947799 L90.7877551,54.7492323 C90.6102041,54.9273286 90.5510204,55.2241556 90.6989796,55.4616172 L92.3265306,58.5189355 C91.6459184,59.5578301 91.172449,60.6857728 90.8765306,61.9027636 L87.4438776,62.8822927 C87.177551,62.9416581 87,63.1791198 87,63.4462641 L87,65.5240532 C87,65.7911975 87.177551,66.0286592 87.4438776,66.0880246 L90.8469388,67.0972364 C91.1132653,68.2251791 91.5571429,69.2640737 92.1489796,70.2139202 L90.4030612,73.3306039 C90.2846939,73.5680655 90.3142857,73.8648925 90.4918367,74.0429887 L91.9418367,75.4974411 C92.1193878,75.6755374 92.4153061,75.7349028 92.6520408,75.5864893 L95.7591837,73.8352098 C96.794898,74.4882293 97.9489796,74.9334698 99.1918367,75.2006141 L100.138776,78.5547595 C100.197959,78.8219038 100.434694,79 100.70102,79 L102.772449,79 C103.038776,79 103.27551,78.8219038 103.334694,78.5547595 L104.340816,75.0225179 C105.435714,74.7256909 106.471429,74.2507677 107.418367,73.6274309 L110.466327,75.3193449 C110.703061,75.4380757 110.99898,75.408393 111.176531,75.2302968 L112.626531,73.7758444 C112.804082,73.5977482 112.863265,73.3009212 112.715306,73.0634596 L110.939796,69.8577277 C111.442857,68.9672467 111.827551,68.0174002 112.064286,67.0081883 L115.496939,66.0286592 C115.822449,66.0583419 116,65.8208802 116,65.5537359 L116,63.4759468 C116,63.2088025 115.822449,62.9713408 115.556122,62.9119754 Z M101.796216,67.4465791 C100.186811,67.4465791 98.8700255,66.1257499 98.8700255,64.5114032 C98.8700255,62.8970565 100.186811,61.5762273 101.796216,61.5762273 C103.405621,61.5762273 104.722407,62.8970565 104.722407,64.5114032 C104.722407,66.1257499 103.405621,67.4465791 101.796216,67.4465791 Z" id="Shape" fill="#FBB133" fill-rule="nonzero"/><path d="M174.739796,7.56908905 L172.744898,6.99488229 C172.588776,6.33367451 172.328571,5.72466735 171.981633,5.1678608 L173.005102,3.3408393 C173.07449,3.20163767 173.057143,3.02763562 172.953061,2.92323439 L172.103061,2.07062436 C171.99898,1.96622313 171.82551,1.93142272 171.686735,2.01842375 L169.865306,3.04503582 C169.362245,2.73183214 168.807143,2.48822927 168.217347,2.33162743 L167.627551,0.261003071 C167.592857,0.104401228 167.454082,0 167.297959,0 L166.083673,0 C165.927551,0 165.788776,0.104401228 165.754082,0.261003071 L165.19898,2.2272262 C164.539796,2.36642784 163.915306,2.61003071 163.360204,2.92323439 L161.486735,1.87922211 C161.347959,1.80962129 161.17449,1.82702149 161.070408,1.93142272 L160.220408,2.78403275 C160.116327,2.88843398 160.081633,3.06243603 160.168367,3.20163767 L161.122449,4.99385875 C160.723469,5.60286592 160.445918,6.26407369 160.272449,6.97748209 L158.260204,7.55168884 C158.104082,7.58648925 158,7.72569089 158,7.88229273 L158,9.10030706 C158,9.2569089 158.104082,9.39611054 158.260204,9.43091095 L160.255102,10.0225179 C160.411224,10.6837257 160.671429,11.2927329 161.018367,11.8495394 L159.994898,13.6765609 C159.92551,13.8157625 159.942857,13.9897646 160.046939,14.0941658 L160.896939,14.9467758 C161.00102,15.0511771 161.17449,15.0859775 161.313265,14.9989765 L163.134694,13.9723644 C163.741837,14.3551689 164.418367,14.616172 165.146939,14.7727738 L165.702041,16.7389969 C165.736735,16.8955988 165.87551,17 166.031633,17 L167.245918,17 C167.402041,17 167.540816,16.8955988 167.57551,16.7389969 L168.165306,14.6683726 C168.807143,14.4943705 169.414286,14.2159672 169.969388,13.8505629 L171.756122,14.8423746 C171.894898,14.9119754 172.068367,14.8945752 172.172449,14.790174 L173.022449,13.937564 C173.126531,13.8331627 173.161224,13.6591607 173.07449,13.5199591 L172.033673,11.6407369 C172.328571,11.1187308 172.554082,10.5619243 172.692857,9.9703173 L174.705102,9.39611054 C174.895918,9.41351075 175,9.27430911 175,9.11770727 L175,7.89969294 C175,7.7430911 174.895918,7.60388946 174.739796,7.56908905 Z M166.673644,10.227305 C165.7302,10.227305 164.958291,9.45302582 164.958291,8.50668464 C164.958291,7.56034345 165.7302,6.7860643 166.673644,6.7860643 C167.617088,6.7860643 168.388997,7.56034345 168.388997,8.50668464 C168.388997,9.45302582 167.617088,10.227305 166.673644,10.227305 Z" id="Shape" fill="#FBB133" fill-rule="nonzero"/><use id="Shape" stroke="#FBB133" mask="url(#mask-6)" stroke-width="2" fill-rule="nonzero" xlink:href="#path-5"/><use id="Oval_1" stroke="#000" mask="url(#mask-8)" stroke-width="6" opacity=".2" xlink:href="#path-7"/><use id="Oval_1" stroke="#000" mask="url(#mask-10)" stroke-width="6" opacity=".2" xlink:href="#path-9"/></g></g></g></g></g></svg>