<svg width="300" height="120" viewBox="0 0 253 100" version="1.1" xmlns="http://www.w3.org/2000/svg" xmlns:xlink="http://www.w3.org/1999/xlink"><title>layer</title><desc>Created with Sketch.</desc><defs><rect id="path-1" x="0" y="0" width="255" height="101"/><circle id="path-3" cx="126" cy="131" r="120"/><mask id="mask-4" maskContentUnits="userSpaceOnUse" maskUnits="objectBoundingBox" x="0" y="0" width="240" height="240" fill="#fff"><use xlink:href="#path-3"/></mask><path d="M10,57.1445278 C9.56521739,57.1445278 9.13043478,57.014093 8.7826087,56.7314843 C8.30434783,56.34018 7.82608696,55.9706147 7.32608696,55.6010495 C3.7173913,52.8184408 0,49.9271365 0,45.4271365 C0,42.514093 1.63043478,39.9488756 4.06521739,39.0358321 C5.97826087,38.34018 7.95652174,38.8836582 9.32608696,40.514093 C9.5,40.7097452 9.73913043,40.8184408 10,40.8184408 C10.2608696,40.8184408 10.5,40.7097452 10.673913,40.514093 C12.0652174,38.8836582 14.0217391,38.34018 15.9347826,39.0358321 C18.3695652,39.9271365 20,42.4923539 20,45.4271365 C20,49.9271365 16.2826087,52.7967017 12.6956522,55.5793104 C12.1956522,55.9706147 11.7173913,56.34018 11.2173913,56.7314843 C10.8695652,57.014093 10.4347826,57.1445278 10,57.1445278 Z" id="path-5"/><mask id="mask-6" maskContentUnits="userSpaceOnUse" maskUnits="objectBoundingBox" x="0" y="0" width="20" height="18.405" fill="#fff"><use xlink:href="#path-5"/></mask><path d="M168,66.6230105 C167.695652,66.6230105 167.391304,66.5317061 167.147826,66.33388 C166.813043,66.059967 166.478261,65.8012714 166.128261,65.5425757 C163.602174,63.5947496 161,61.5708366 161,58.4208366 C161,56.3817061 162.141304,54.586054 163.845652,53.9469235 C165.184783,53.459967 166.569565,53.8404018 167.528261,54.9817061 C167.65,55.1186627 167.817391,55.1947496 168,55.1947496 C168.182609,55.1947496 168.35,55.1186627 168.471739,54.9817061 C169.445652,53.8404018 170.815217,53.459967 172.154348,53.9469235 C173.858696,54.5708366 175,56.3664887 175,58.4208366 C175,61.5708366 172.397826,63.5795322 169.886957,65.5273583 C169.536957,65.8012714 169.202174,66.059967 168.852174,66.33388 C168.608696,66.5317061 168.304348,66.6230105 168,66.6230105 Z" id="path-7"/><mask id="mask-8" maskContentUnits="userSpaceOnUse" maskUnits="objectBoundingBox" x="0" y="0" width="14" height="12.884" fill="#fff"><use xlink:href="#path-7"/></mask><ellipse id="path-9" cx="157.633" cy="76.5" rx="9.055" ry="9"/><mask id="mask-10" maskContentUnits="userSpaceOnUse" maskUnits="objectBoundingBox" x="0" y="0" width="18.109" height="18" fill="#fff"><use xlink:href="#path-9"/></mask><circle id="path-11" cx="30.078" cy="62" r="5.5"/><mask id="mask-12" maskContentUnits="userSpaceOnUse" maskUnits="objectBoundingBox" x="0" y="0" width="11" height="11" fill="#fff"><use xlink:href="#path-11"/></mask></defs><g id="Page-1" stroke="none" stroke-width="1" fill="none" fill-rule="evenodd"><g id="Launch-Image-folders" transform="translate(-833.000000, 0.000000)"><g id="playlist" transform="translate(960.500000, -24.500000) scale(1, -1) translate(-960.500000, 24.500000) translate(833.000000, -150.000000)"><g id="layer"><g id="bg"><mask id="mask-2" fill="#fff"><use xlink:href="#path-1"/></mask><circle fill-opacity=".85" fill="#FFF" mask="url(#mask-2)" cx="126" cy="131" r="130"/></g><use id="bg-border" stroke-opacity=".3" stroke="#000" mask="url(#mask-4)" stroke-width="6" stroke-linejoin="round" stroke-dasharray="8,6" xlink:href="#path-3"/><g id="deco-heart" transform="translate(35.000000, 25.000000)"><path d="M92.5,68.1658163 C92,68.1658163 91.5,68.0158163 91.1,67.6908163 C90.55,67.2408163 90,66.8158163 89.425,66.3908163 C85.275,63.1908163 81,59.8658163 81,54.6908163 C81,51.3408163 82.875,48.3908163 85.675,47.3408163 C87.875,46.5408163 90.15,47.1658163 91.725,49.0408163 C91.925,49.2658163 92.2,49.3908163 92.5,49.3908163 C92.8,49.3908163 93.075,49.2658163 93.275,49.0408163 C94.875,47.1658163 97.125,46.5408163 99.325,47.3408163 C102.125,48.3658163 104,51.3158163 104,54.6908163 C104,59.8658163 99.725,63.1658163 95.6,66.3658163 C95.025,66.8158163 94.475,67.2408163 93.9,67.6908163 C93.5,68.0158163 93,68.1658163 92.5,68.1658163 Z" id="Shape" fill="#FC6969" fill-rule="nonzero" transform="translate(92.500000, 57.582908) scale(1, -1) translate(-92.500000, -57.582908)"/><use id="Shape" stroke="#FC6969" mask="url(#mask-6)" stroke-width="4" fill-rule="nonzero" transform="translate(10.000000, 47.941999) scale(1, -1) translate(-10.000000, -47.941999)" xlink:href="#path-5"/><use id="Shape" stroke="#FC6969" mask="url(#mask-8)" stroke-width="4" fill="#FC6969" fill-rule="nonzero" transform="translate(168.000000, 60.181240) scale(1, -1) translate(-168.000000, -60.181240)" xlink:href="#path-7"/><use id="Oval_1" stroke="#000" mask="url(#mask-10)" stroke-width="6" opacity=".2" xlink:href="#path-9"/><circle id="Oval_1" fill-opacity=".6" fill="#000" opacity=".2" cx="59.578" cy="5.5" r="5"/><use id="Oval_1" stroke="#000" mask="url(#mask-12)" stroke-width="6" opacity=".2" xlink:href="#path-11"/></g></g></g></g></g></svg>