<svg width="300" height="120" viewBox="0 0 254 101" version="1.1" xmlns="http://www.w3.org/2000/svg" xmlns:xlink="http://www.w3.org/1999/xlink"><title>layer</title><desc>Created with Sketch.</desc><defs><path d="M10.3721126,10.8325473 C23.2829592,63.180694 70.551006,102 126.885787,102 C183.589319,102 231.107032,62.6708322 243.64857,9.80285069" id="path-1"/><mask id="mask-2" maskContentUnits="userSpaceOnUse" maskUnits="objectBoundingBox" x="0" y="0" width="233.276" height="92.197" fill="#fff"><use xlink:href="#path-1"/></mask><rect id="path-3" x="5" y="50" width="18" height="21.857" rx="3"/><mask id="mask-4" maskContentUnits="userSpaceOnUse" maskUnits="objectBoundingBox" x="0" y="0" width="18" height="21.857" fill="#fff"><use xlink:href="#path-3"/></mask><rect id="path-5" x="88" y="0" width="16" height="19.429" rx="3"/><mask id="mask-6" maskContentUnits="userSpaceOnUse" maskUnits="objectBoundingBox" x="0" y="0" width="16" height="19.429" fill="#fff"><use xlink:href="#path-5"/></mask><ellipse id="path-7" cx="179.633" cy="57.5" rx="9.055" ry="9"/><mask id="mask-8" maskContentUnits="userSpaceOnUse" maskUnits="objectBoundingBox" x="0" y="0" width="18.109" height="18" fill="#fff"><use xlink:href="#path-7"/></mask><circle id="path-9" cx="30.078" cy="44" r="5.5"/><mask id="mask-10" maskContentUnits="userSpaceOnUse" maskUnits="objectBoundingBox" x="0" y="0" width="11" height="11" fill="#fff"><use xlink:href="#path-9"/></mask></defs><g id="Page-1" stroke="none" stroke-width="1" fill="none" fill-rule="evenodd"><g id="Launch-settings" transform="translate(-831.000000, 0.000000)"><g id="videos" transform="translate(958.000000, 51.000000) scale(1, -1) translate(-958.000000, -51.000000) translate(831.000000, 0.000000)"><g id="layer" transform="translate(0.000000, 1.000000)"><path d="M0,0.412572578 C12.9600476,58.5446833 64.848151,102 126.885787,102 C188.752439,102 240.525428,58.7838917 253.663529,0.892899429" id="bg" fill-opacity=".85" fill="#FFF" transform="translate(126.831765, 51.206286) scale(1, -1) translate(-126.831765, -51.206286)"/><use id="bg-border" stroke-opacity=".3" stroke="#000" mask="url(#mask-2)" stroke-width="6" stroke-linejoin="round" stroke-dasharray="8,6" transform="translate(127.010341, 55.901425) scale(1, -1) translate(-127.010341, -55.901425)" xlink:href="#path-1"/><g id="deco-videos" transform="translate(33.000000, 23.000000)"><rect id="Rectangle-8" fill="#4DBCAE" transform="translate(157.620000, 65.252857) rotate(26.000000) translate(-157.620000, -65.252857)" x="150" y="56" width="15.24" height="18.506" rx="3"/><use id="Rectangle-8" stroke="#4DBCAE" mask="url(#mask-4)" stroke-width="4" transform="translate(14.000000, 60.928571) rotate(146.000000) translate(-14.000000, -60.928571)" xlink:href="#path-3"/><use id="Rectangle-8" stroke="#4DBCAE" mask="url(#mask-6)" stroke-width="4" xlink:href="#path-5"/><rect id="Rectangle-8" fill="#4DBCAE" x="84" y="4" width="16" height="20" rx="2"/><use id="Oval_1" stroke="#000" mask="url(#mask-8)" stroke-width="6" opacity=".2" xlink:href="#path-7"/><circle id="Oval_1" fill-opacity=".6" fill="#000" opacity=".2" cx="63.578" cy="71.5" r="5"/><use id="Oval_1" stroke="#000" mask="url(#mask-10)" stroke-width="6" opacity=".2" xlink:href="#path-9"/></g></g></g></g></g></svg>