<svg xmlns="http://www.w3.org/2000/svg" width="18" height="23" viewBox="0 0 18 23"><path fill="#FFF" d="M16.84702,9.7584489 C16.929722,9.2805257 16.975345,8.7888915 16.975345,8.2862886 C16.975345,3.7174207 13.397593,4.00000001e-07 9,4.00000001e-07 C4.602213,4.00000001e-07 1.024267,3.7174207 1.024267,8.2862886 C1.024267,8.7888915 1.070083,9.280134 1.15298,9.7584489 C0.4604931,10.2046412 0,10.9847922 0,11.8758057 L0,19.9877694 C0,21.3753138 1.114929,22.5000004 2.489808,22.5000004 L15.509998,22.5000004 C16.884488,22.5000004 17.999223,21.3753138 17.999223,19.9877694 L18,19.9877694 L18,11.8758057 C18,10.9849881 17.539895,10.2046412 16.84702,9.7584489 Z M10.098622,16.8415066 L10.098622,18.6043383 C10.098622,19.2170202 9.606678,19.7133553 8.999612,19.7133553 C8.392545,19.7133553 7.900602,19.2170202 7.900602,18.6043383 L7.900602,16.8407231 C7.19569,16.4487869 6.717531,15.6925321 6.717531,14.8228685 C6.717531,13.5512792 7.739274,12.5202186 9,12.5202186 C10.260726,12.5202186 11.282664,13.5512792 11.282664,14.8228685 C11.282664,15.6929238 10.804116,16.4497662 10.098622,16.8415066 Z M13.940788,9.3633788 L4.059018,9.3633788 C3.991264,9.0157092 3.955154,8.6551122 3.955154,8.2862886 C3.955154,5.3476482 6.21821,2.9570526 9,2.9570526 C11.781596,2.9570526 14.044457,5.3474524 14.044457,8.2862886 C14.044457,8.6551122 14.008736,9.0157092 13.940788,9.3633788 Z"/></svg>