<svg xmlns="http://www.w3.org/2000/svg" viewBox="0 0 25 25"><path fill="#000" fill-rule="evenodd" d="M15.9078 12.3744l3.7228-3.7227c.3826-.3827.3848-1.0175-.0054-1.4077l-2.1204-2.1204c-.393-.393-1.0205-.3927-1.4077-.0055l-3.7227 3.723-3.7228-3.723c-.3826-.3825-1.0175-.3847-1.4077.0056L5.1234 7.244c-.393.393-.3926 1.0204-.0054 1.4077l3.7228 3.7227-3.7228 3.7228c-.3826.3827-.3848 1.0175.0054 1.4077l2.1204 2.1203c.393.393 1.0205.3927 1.4077.0054l3.7228-3.7227 3.7228 3.7227c.3827.3827 1.0176.3848 1.4078-.0054l2.1204-2.1204c.393-.393.3926-1.0206.0054-1.4078l-3.7228-3.7228zM0 12.493C-.004 5.5893 5.5894-.004 12.493 0 19.3964.004 24.996 5.6035 25 12.507c.004 6.9036-5.5894 12.497-12.493 12.493C5.6036 24.996.004 19.3965 0 12.493z"/></svg>