<svg xmlns="http://www.w3.org/2000/svg" xmlns:xlink="http://www.w3.org/1999/xlink" width="245" height="1030"><defs><path id="a" d="M0 0h245v1058H0z"/><linearGradient id="c" x1="49.505%" x2="59.403%" y1="67.172%" y2="1.871%"><stop offset="8%" stop-color="#006EFF"/><stop offset="54%" stop-color="#00ABFF"/><stop offset="100%" stop-color="#00E8FF"/></linearGradient><radialGradient id="d" r="61.188%" fx="50%" fy="50%"><stop offset="0%" stop-color="#4CB7FF"/><stop offset="74%" stop-color="#96D3FD"/><stop offset="78%" stop-color="#DFF0FB"/></radialGradient></defs><g fill="none" fill-rule="evenodd" transform="translate(0 -28)"><mask id="b" fill="#fff"><use xlink:href="#a"/></mask><g mask="url(#b)"><path fill="url(#c)" fill-rule="nonzero" d="M545.287736.34253174C470.301216-1.7933568 460.464341 27.1699879 378.180087 28.1586951c-31.040391.6136288-62.16081-13.1671575-98.190267-19.92005923C238.049406.39065217 195.810352 19.5338833 152.184288 19.7095789c-43.449272.175136-124.6050238-28.73467933-130.3484711-.1777161C-23.0716792 242.809026 16.3773198 1034.28115 16.3773198 1034.28115l529.5964442.60011S545.287736 69.2823361 545.287736.34253174z" transform="translate(-258.662 26.416)"/><path stroke="#77DDE5" stroke-width="1.79" d="M286.625736 26.75853174c-74.98652-2.13588853-84.823395 26.82745616-167.107649 27.81616336-31.040391.6136288-62.16081-13.1671575-98.190267-19.92005923-41.940414-7.8479837-84.179468 11.29524743-127.805532 11.47094303-43.449272.175136-124.6050238-28.73467933-130.3484711-.1777161-44.9074961 223.2771632-5.4584971 1014.7492872-5.4584971 1014.7492872l529.5964442.60011s-.686028-965.5989239-.686028-1034.53872826z"/><g fill-rule="nonzero" opacity=".388"><path fill="url(#d)" d="M4 0c2.2076 0 4 1.7924 4 4 0 2.2076-1.7924 4-4 4-2.2076 0-4-1.7924-4-4 0-2.2076 1.7924-4 4-4z" opacity=".4" transform="translate(171.82 775.229)"/><path fill="#FFF" fill-opacity=".43" d="M177.9480128 780.2613152c-.1833744 0-.3848688.3087648-.7414704.587088-.4732944.369648-1.040088.547224-.793656.862512.1101696.141336.2884704.210192.4943136.210192.2529552 0 .5479488-.105096.8088768-.3087648.4732944-.369648.6566688-.9248448.4102368-1.2401328-.0608832-.0775536-.1181424-.1108944-.1783008-.1108944z"/><path fill="#FFF" d="M174.87696 776.6450128c-.4073376 0-.8545392.1253904-1.181424.4196592-.6421728.5783904-.576216 1.5887616-.2203392 1.9845024.0608832.0674064.1116192.0971232.1580064.0971232.2261376 0 .337032-.7052304.86976-1.185048.6421728-.5783904 1.6539936-.6095568 1.297392-1.0052976-.1746768-.1942464-.5305536-.3109392-.9233952-.3109392z" opacity=".58"/></g><g fill-rule="nonzero" opacity=".5"><path fill="url(#d)" d="M8.5 0C13.19115 0 17 3.80885 17 8.5S13.19115 17 8.5 17 0 13.19115 0 8.5 3.80885 0 8.5 0z" opacity=".4" transform="translate(114.724 718.03)"/><path fill="#FFF" fill-opacity=".43" d="M127.7460272 728.7230448c-.3896706 0-.8178462.6561252-1.5756246 1.247562-1.0057506.785502-2.210187 1.162851-1.686519 1.832838.2341104.300339.6129996.446658 1.0504164.446658.5375298 0 1.1643912-.223329 1.7188632-.6561252 1.0057506-.785502 1.3954212-1.9652952.8717532-2.6352822-.1293768-.1648014-.2510526-.2356506-.3788892-.2356506z"/><path fill="#FFF" d="M121.22254 721.0415272c-.8655924 0-1.8158958.2664546-2.510526.8917758-1.3646172 1.2290796-1.224459 3.3761184-.4682208 4.2170676.1293768.1432386.2371908.2063868.3357636.2063868.4805424 0 .716193-1.4986146 1.84824-2.518227 1.3646172-1.2290796 3.5147364-1.2953082 2.756958-2.1362574-.3711882-.4127736-1.1274264-.6607458-1.9622148-.6607458z" opacity=".58"/></g><g fill-rule="nonzero" opacity=".469"><path fill="url(#d)" d="M6.5 0C10.08735 0 13 2.91265 13 6.5S10.08735 13 6.5 13 0 10.08735 0 6.5 2.91265 0 6.5 0z" opacity=".4" transform="translate(106.676 741.157)"/><path fill="#FFF" fill-opacity=".43" d="M116.6340208 749.3343872c-.2979834 0-.6254118.5017428-1.2048894.954018-.7691034.600678-1.690143.889239-1.289691 1.401582.1790256.229671.4687644.341562.8032596.341562.4110522 0 .8904168-.170781 1.3144248-.5017428.7691034-.600678 1.0670868-1.5028728.6666348-2.0152158-.0989352-.1260246-.1919814-.1802034-.2897388-.1802034z"/><path fill="#FFF" d="M111.64506 743.4595208c-.6619236 0-1.3886262.2037594-1.919814.6819462-1.0435308.9398844-.936351 2.5817376-.3580512 3.2248164.0989352.1095354.1813812.1578252.2567604.1578252.3674736 0 .547677-1.1459994 1.41336-1.925703 1.0435308-.9398844 2.6877396-.9905298 2.108262-1.6336086-.2838498-.3156504-.8621496-.5052762-1.5005172-.5052762z" opacity=".58"/></g><g fill-rule="nonzero" opacity=".039"><path fill="url(#d)" d="M7.71212121 0c4.25631969 0 7.71212119 3.45580152 7.71212119 7.71212121s-3.4558015 7.71212119-7.71212119 7.71212119S0 11.9684409 0 7.71212121 3.45580152 0 7.71212121 0z" opacity=".4" transform="translate(182.787 942.442)"/><path fill="#FFF" fill-opacity=".43" d="M194.60187316 952.14451302c-.3535514 0-.74203871.59530789-1.4295774 1.13192345-.91252594.71269255-2.00532118 1.05506446-1.53019281 1.66294928.21241032.27250009.55617967.40525654.9530516.40525654.48770529 0 1.05646189-.20262827 1.55953898-.59530789.91252594-.71269255 1.26607734-1.7831288.79094898-2.39101362-.11738466-.14952569-.22778213-.21380776-.34376935-.21380776z"/><path fill="#FFF" d="M188.68207818 945.17328226c-.78535923 0-1.64757747.24175649-2.27782127.80911565-1.23812862 1.11515422-1.11096191 3.06318051-.42482066 3.82618076.11738466.12996158.2152052.18725648.30464113.18725648.43600015 0 .64980791-1.35970559 1.67692364-2.28480846 1.23812862-1.11515422 3.18894978-1.17524398 2.50141109-1.93824424-.33678216-.37451294-1.02292342-.5995002-1.78033393-.5995002z" opacity=".58"/></g><g fill-rule="nonzero" opacity=".448"><path fill="url(#d)" d="M11.8992105 0c6.5671743 0 11.8992106 5.33203624 11.8992106 11.8992105 0 6.5671743-5.3320363 11.8992106-11.8992106 11.8992106C5.33203624 23.7984211 0 18.4663848 0 11.8992105 0 5.33203624 5.33203624 0 11.8992105 0z" opacity=".4" transform="translate(62.126 923.655)"/><path fill="#FFF" fill-opacity=".43" d="M80.35641808 938.62420207c-.54550265 0-1.14490872.91851434-2.2057281 1.74647092-1.40795743 1.09962985-3.09405652 1.6278834-2.36096996 2.56580297.32773282.42044671.85814251.62527972 1.4704854.62527972.7524918 0 1.63003953-.31263986 2.40624883-.91851434 1.40795743-1.09962985 1.95346008-2.75123075 1.22037352-3.68915032-.18111551-.23070665-.35145033-.32988895-.53040969-.32988895z"/><path fill="#FFF" d="M71.22256976 927.8700757c-.87754774 0-1.81546731.19405233-2.63695549.63390427-.31263986.16817868-.60803062.37301169-.87754774.61449903-1.91033733 1.72059729-1.71412887 4.72625219-.65546563 5.90350296.18111551.20052074.33204509.28892235.47003786.28892235.67271472 0 1.00260368-2.09792125 2.58736433-3.5252839 1.58260452-1.42520653 3.91985697-1.73569025 4.0729427-2.46877681.01940523-.09702616 0-.20267687-.06468411-.31910827-.02802978-.05174728-.06684025-.10780684-.11427526-.16602254-.01078068-.01293682-.02371751-.02371751-.03449819-.03665433-.01078069-.01078069-.02156137-.02587364-.03234206-.03665433l-.00431227-.00431227c-.04959115-.05174729-.10349457-.10133844-.16171027-.14877345-.13368049-.10996299-.28676621-.20914529-.45710103-.29539076-.55843947-.28245394-1.30015058-.43985194-2.09145284-.43985194z" opacity=".58"/></g><g fill-rule="nonzero" opacity=".691"><path fill="url(#d)" d="M10.3437012 0c5.7086886 0 10.3437011 4.63501249 10.3437011 10.3437012 0 5.7086886-4.6350125 10.3437011-10.3437011 10.3437011C4.63501249 20.6874023 0 16.0523898 0 10.3437012 0 4.63501249 4.63501249 0 10.3437012 0z" opacity=".4" transform="translate(82.78 759.007)"/><path fill="#FFF" fill-opacity=".43" d="M98.62688212 772.01969415c-.4741925 0-.99524197.7984427-1.91738706 1.5181657-1.22390396.95588211-2.68958987 1.41508038-2.05233512 2.2303916.28489035.36548433.7459629.5435408 1.27825803.5435408.65412325 0 1.41695466-.2717704 2.09169498-.7984427 1.22390396-.95588211 1.69809645-2.39157956 1.06084171-3.20689077-.1574394-.20054782-.30550742-.28676463-.46107254-.28676463z"/><path fill="#FFF" d="M90.68755235 762.6711855c-1.0533446 0-2.20977452.3242502-3.05507419 1.08520733-1.66061089 1.49567436-1.49005153 4.1084188-.56978071 5.13177494.1574394.17430792.28863891.25115334.40859274.25115334.58477494 0 .87153957-1.82367313 2.24913438-3.06444559 1.66061088-1.49567436 4.27710388-1.57626835 3.35495878-2.59962449-.45170115-.50230668-1.37197197-.80406554-2.387831-.80406554z" opacity=".58"/></g><g fill-rule="nonzero" opacity=".469"><path fill="url(#d)" d="M8 0c4.4152 0 8 3.5848 8 8 0 4.4152-3.5848 8-8 8-4.4152 0-8-3.5848-8-8 0-4.4152 3.5848-8 8-8z" opacity=".4" transform="translate(176.093 812.436)"/><path fill="#FFF" fill-opacity=".43" d="M188.3490256 822.5006304c-.3667488 0-.7697376.6175296-1.4829408 1.174176-.9465888.739296-2.080176 1.094448-1.587312 1.725024.2203392.282672.5769408.420384.9886272.420384.5059104 0 1.0958976-.210192 1.6177536-.6175296.9465888-.739296 1.3133376-1.8496896.8204736-2.4802656-.1217664-.1551072-.2362848-.2217888-.3566016-.2217888z"/><path fill="#FFF" d="M182.20892 815.2700256c-.8146752 0-1.7090784.2507808-2.362848.8393184-1.2843456 1.1567808-1.152432 3.1775232-.4406784 3.9690048.1217664.1348128.2232384.1942464.3160128.1942464.4522752 0 .674064-1.4104608 1.73952-2.370096 1.2843456-1.1567808 3.3079872-1.2191136 2.594784-2.0105952-.3493536-.3884928-1.0611072-.6218784-1.8467904-.6218784z" opacity=".58"/></g><g fill-rule="nonzero" opacity=".474"><path fill="url(#d)" d="M4 0c2.2076 0 4 1.7924 4 4 0 2.2076-1.7924 4-4 4-2.2076 0-4-1.7924-4-4 0-2.2076 1.7924-4 4-4z" opacity=".4" transform="translate(167.419 802.736)"/><path fill="#FFF" fill-opacity=".43" d="M173.5470128 807.7683152c-.1833744 0-.3848688.3087648-.7414704.587088-.4732944.369648-1.040088.547224-.793656.862512.1101696.141336.2884704.210192.4943136.210192.2529552 0 .5479488-.105096.8088768-.3087648.4732944-.369648.6566688-.9248448.4102368-1.2401328-.0608832-.0775536-.1181424-.1108944-.1783008-.1108944z"/><path fill="#FFF" d="M170.47596 804.1520128c-.4073376 0-.8545392.1253904-1.181424.4196592-.6421728.5783904-.576216 1.5887616-.2203392 1.9845024.0608832.0674064.1116192.0971232.1580064.0971232.2261376 0 .337032-.7052304.86976-1.185048.6421728-.5783904 1.6539936-.6095568 1.297392-1.0052976-.1746768-.1942464-.5305536-.3109392-.9233952-.3109392z" opacity=".58"/></g><g fill-rule="nonzero" opacity=".16"><path fill="url(#d)" d="M3 0c1.6557 0 3 1.3443 3 3S4.6557 6 3 6 0 4.6557 0 3s1.3443-3 3-3z" opacity=".4" transform="translate(162.345 657.448)"/><path fill="#FFF" fill-opacity=".43" d="M166.9410096 661.2224864c-.1375308 0-.2886516.2315736-.5561028.440316-.3549708.277236-.780066.410418-.595242.646884.0826272.106002.2163528.157644.3707352.157644.1897164 0 .4109616-.078822.6066576-.2315736.3549708-.277236.4925016-.6936336.3076776-.9300996-.0456624-.0581652-.0886068-.0831708-.1337256-.0831708z"/><path fill="#FFF" d="M164.63872 658.5110096c-.3055032 0-.6409044.0940428-.886068.3147444-.4816296.4337928-.432162 1.1915712-.1652544 1.4883768.0456624.0505548.0837144.0728424.1185048.0728424.1696032 0 .252774-.5289228.65232-.888786.4816296-.4337928 1.2404952-.4571676.973044-.7539732-.1310076-.1456848-.3979152-.2332044-.6925464-.2332044z" opacity=".58"/></g><g fill-rule="nonzero" opacity=".35"><path fill="url(#d)" d="M2.5 0C3.87975 0 5 1.12025 5 2.5S3.87975 5 2.5 5 0 3.87975 0 2.5 1.12025 0 2.5 0z" opacity=".4" transform="translate(101.601 582.515)"/><path fill="#FFF" fill-opacity=".43" d="M105.431008 585.660072c-.114609 0-.240543.192978-.463419.36693-.295809.23103-.650055.342015-.496035.53907.068856.088335.180294.13137.308946.13137.158097 0 .342468-.065685.505548-.192978.295809-.23103.410418-.578028.256398-.775083-.038052-.048471-.073839-.069309-.111438-.069309z"/><path fill="#FFF" d="M103.5121 583.400508c-.254586 0-.534087.078369-.73839.262287-.401358.361494-.360135.992976-.137712 1.240314.038052.042129.069762.060702.098754.060702.141336 0 .210645-.440769.5436-.740655.401358-.361494 1.033746-.380973.81087-.628311-.109173-.121404-.331596-.194337-.577122-.194337z" opacity=".58"/></g><g fill-rule="nonzero" opacity=".319"><path fill="url(#d)" d="M6 0c3.3114 0 6 2.6886 6 6s-2.6886 6-6 6-6-2.6886-6-6 2.6886-6 6-6z" opacity=".4" transform="translate(58.566 641.385)"/><path fill="#FFF" fill-opacity=".43" d="M67.7580192 648.9329728c-.2750616 0-.5773032.4631472-1.1122056.880632-.7099416.554472-1.560132.820836-1.190484 1.293768.1652544.212004.4327056.315288.7414704.315288.3794328 0 .8219232-.157644 1.2133152-.4631472.7099416-.554472.9850032-1.3872672.6153552-1.8601992-.0913248-.1163304-.1772136-.1663416-.2674512-.1663416z"/><path fill="#FFF" d="M63.15244 643.5100192c-.6110064 0-1.2818088.1880856-1.772136.6294888-.9632592.8675856-.864324 2.3831424-.3305088 2.9767536.0913248.1011096.1674288.1456848.2370096.1456848.3392064 0 .505548-1.0578456 1.30464-1.777572.9632592-.8675856 2.4809904-.9143352 1.946088-1.5079464-.2620152-.2913696-.7958304-.4664088-1.3850928-.4664088z" opacity=".58"/></g><g fill-rule="nonzero" opacity=".283"><path fill="url(#d)" d="M6.5 0C10.08735 0 13 2.91265 13 6.5S10.08735 13 6.5 13 0 10.08735 0 6.5 2.91265 0 6.5 0z" opacity=".4" transform="translate(91.945 598.038)"/><path fill="#FFF" fill-opacity=".43" d="M101.9030208 606.2153872c-.2979834 0-.6254118.5017428-1.2048894.954018-.7691034.600678-1.690143.889239-1.289691 1.401582.1790256.229671.4687644.341562.8032596.341562.4110522 0 .8904168-.170781 1.3144248-.5017428.7691034-.600678 1.0670868-1.5028728.6666348-2.0152158-.0989352-.1260246-.1919814-.1802034-.2897388-.1802034z"/><path fill="#FFF" d="M96.91406 600.3405208c-.6619236 0-1.3886262.2037594-1.919814.6819462-1.0435308.9398844-.936351 2.5817376-.3580512 3.2248164.0989352.1095354.1813812.1578252.2567604.1578252.3674736 0 .547677-1.1459994 1.41336-1.925703 1.0435308-.9398844 2.6877396-.9905298 2.108262-1.6336086-.2838498-.3156504-.8621496-.5052762-1.5005172-.5052762z" opacity=".58"/></g><g fill-rule="nonzero" opacity=".279"><path fill="url(#d)" d="M8.5 0C13.19115 0 17 3.80885 17 8.5S13.19115 17 8.5 17 0 13.19115 0 8.5 3.80885 0 8.5 0z" opacity=".4" transform="translate(114.538 745.813)"/><path fill="#FFF" fill-opacity=".43" d="M127.5600272 756.5060448c-.3896706 0-.8178462.6561252-1.5756246 1.247562-1.0057506.785502-2.210187 1.162851-1.686519 1.832838.2341104.300339.6129996.446658 1.0504164.446658.5375298 0 1.1643912-.223329 1.7188632-.6561252 1.0057506-.785502 1.3954212-1.9652952.8717532-2.6352822-.1293768-.1648014-.2510526-.2356506-.3788892-.2356506z"/><path fill="#FFF" d="M121.03654 748.8245272c-.8655924 0-1.8158958.2664546-2.510526.8917758-1.3646172 1.2290796-1.224459 3.3761184-.4682208 4.2170676.1293768.1432386.2371908.2063868.3357636.2063868.4805424 0 .716193-1.4986146 1.84824-2.518227 1.3646172-1.2290796 3.5147364-1.2953082 2.756958-2.1362574-.3711882-.4127736-1.1274264-.6607458-1.9622148-.6607458z" opacity=".58"/></g><g fill-rule="nonzero" opacity=".486"><path fill="url(#d)" d="M6.5 0C10.08735 0 13 2.91265 13 6.5S10.08735 13 6.5 13 0 10.08735 0 6.5 2.91265 0 6.5 0z" opacity=".4" transform="translate(81.243 705.313)"/><path fill="#FFF" fill-opacity=".43" d="M91.2010208 713.4903872c-.2979834 0-.6254118.5017428-1.2048894.954018-.7691034.600678-1.690143.889239-1.289691 1.401582.1790256.229671.4687644.341562.8032596.341562.4110522 0 .8904168-.170781 1.3144248-.5017428.7691034-.600678 1.0670868-1.5028728.6666348-2.0152158-.0989352-.1260246-.1919814-.1802034-.2897388-.1802034z"/><path fill="#FFF" d="M86.21206 707.6155208c-.6619236 0-1.3886262.2037594-1.919814.6819462-1.0435308.9398844-.936351 2.5817376-.3580512 3.2248164.0989352.1095354.1813812.1578252.2567604.1578252.3674736 0 .547677-1.1459994 1.41336-1.925703 1.0435308-.9398844 2.6877396-.9905298 2.108262-1.6336086-.2838498-.3156504-.8621496-.5052762-1.5005172-.5052762z" opacity=".58"/></g><g fill-rule="nonzero" opacity=".248"><path fill="url(#d)" d="M5.5 0C8.53545 0 11 2.46455 11 5.5S8.53545 11 5.5 11 0 8.53545 0 5.5 2.46455 0 5.5 0z" opacity=".4" transform="translate(163.789 769.969)"/><path fill="#FFF" fill-opacity=".43" d="M172.2150176 776.8885584c-.2521398 0-.5291946.4245516-1.0195218.807246-.6507798.508266-1.430121.752433-1.091277 1.185954.1514832.194337.3966468.289014.6796812.289014.3478134 0 .7534296-.144507 1.1122056-.4245516.6507798-.508266.9029196-1.2716616.5640756-1.7051826-.0837144-.1066362-.1624458-.1524798-.2451636-.1524798z"/><path fill="#FFF" d="M167.99382 771.9175176c-.5600892 0-1.1749914.1724118-1.624458.5770314-.8829876.7952868-.792297 2.1845472-.3029664 2.7286908.0837144.0926838.1534764.1335444.2172588.1335444.3109392 0 .463419-.9696918 1.19592-1.629441.8829876-.7952868 2.2742412-.8381406 1.783914-1.3822842-.2401806-.2670888-.7295112-.4275414-1.2696684-.4275414z" opacity=".58"/></g><g fill-rule="nonzero" opacity=".352"><path fill="url(#d)" d="M6.5 0C10.08735 0 13 2.91265 13 6.5S10.08735 13 6.5 13 0 10.08735 0 6.5 2.91265 0 6.5 0z" opacity=".4" transform="translate(107.05 759.372)"/><path fill="#FFF" fill-opacity=".43" d="M117.0080208 767.5493872c-.2979834 0-.6254118.5017428-1.2048894.954018-.7691034.600678-1.690143.889239-1.289691 1.401582.1790256.229671.4687644.341562.8032596.341562.4110522 0 .8904168-.170781 1.3144248-.5017428.7691034-.600678 1.0670868-1.5028728.6666348-2.0152158-.0989352-.1260246-.1919814-.1802034-.2897388-.1802034z"/><path fill="#FFF" d="M112.01906 761.6745208c-.6619236 0-1.3886262.2037594-1.919814.6819462-1.0435308.9398844-.936351 2.5817376-.3580512 3.2248164.0989352.1095354.1813812.1578252.2567604.1578252.3674736 0 .547677-1.1459994 1.41336-1.925703 1.0435308-.9398844 2.6877396-.9905298 2.108262-1.6336086-.2838498-.3156504-.8621496-.5052762-1.5005172-.5052762z" opacity=".58"/></g><g fill-rule="nonzero" opacity=".919"><path fill="url(#d)" d="M5.5 0C8.53545 0 11 2.46455 11 5.5S8.53545 11 5.5 11 0 8.53545 0 5.5 2.46455 0 5.5 0z" opacity=".4" transform="translate(90.367 674.671)"/><path fill="#FFF" fill-opacity=".43" d="M98.7930176 681.5905584c-.2521398 0-.5291946.4245516-1.0195218.807246-.6507798.508266-1.430121.752433-1.091277 1.185954.1514832.194337.3966468.289014.6796812.289014.3478134 0 .7534296-.144507 1.1122056-.4245516.6507798-.508266.9029196-1.2716616.5640756-1.7051826-.0837144-.1066362-.1624458-.1524798-.2451636-.1524798z"/><path fill="#FFF" d="M94.57182 676.6195176c-.5600892 0-1.1749914.1724118-1.624458.5770314-.8829876.7952868-.792297 2.1845472-.3029664 2.7286908.0837144.0926838.1534764.1335444.2172588.1335444.3109392 0 .463419-.9696918 1.19592-1.629441.8829876-.7952868 2.2742412-.8381406 1.783914-1.3822842-.2401806-.2670888-.7295112-.4275414-1.2696684-.4275414z" opacity=".58"/></g><g fill-rule="nonzero" opacity=".283"><path fill="url(#d)" d="M7.62878788 0c4.21032802 0 7.62878792 3.41845985 7.62878792 7.62878788 0 4.21032802-3.4184599 7.62878792-7.62878792 7.62878792C3.41845985 15.2575758 0 11.8391159 0 7.62878788 0 3.41845985 3.41845985 0 7.62878788 0z" opacity=".4" transform="translate(168.488 973.527)"/><path fill="#FFF" fill-opacity=".43" d="M180.17553956 983.12411062c-.3497311 0-.73402061.58887529-1.4141301 1.11969245-.90266564.70499155-1.98365268 1.04366396-1.51365831 1.64498028.21011512.26955559.55016987.40087754.9427534.40087754.48243539 0 1.04504629-.20043877 1.54268738-.58887529.90266564-.70499155 1.25239674-1.7638612.78240238-2.36517752-.11611626-.14790999-.22532083-.21149746-.34005475-.21149746z"/><path fill="#FFF" d="M174.32030818 976.22969866c-.77687303 0-1.62977457.23914419-2.25320827.80037275-1.22475002 1.10310442-1.09895741 3.03008131-.42023026 3.78483696.11611626.12855728.2128798.18523308.30134933.18523308.43128895 0 .64278641-1.34501329 1.65880364-2.26011996 1.22475002-1.10310442 3.15449158-1.16254488 2.47438209-1.91730054-.33314306-.37046614-1.01187022-.5930223-1.76109653-.5930223z" opacity=".58"/></g><g fill-rule="nonzero" opacity=".702"><path fill="url(#d)" d="M5 0c2.7595 0 5 2.2405 5 5s-2.2405 5-5 5-5-2.2405-5-5 2.2405-5 5-5z" opacity=".4" transform="translate(235.384 917.156)"/><path fill="#FFF" fill-opacity=".43" d="M243.044016 923.446144c-.229218 0-.481086.385956-.926838.73386-.591618.46206-1.30011.68403-.99207 1.07814.137712.17667.360588.26274.617892.26274.316194 0 .684936-.13137 1.011096-.385956.591618-.46206.820836-1.156056.512796-1.550166-.076104-.096942-.147678-.138618-.222876-.138618z"/><path fill="#FFF" d="M239.2062 918.927016c-.509172 0-1.068174.156738-1.47678.524574-.802716.722988-.72027 1.985952-.275424 2.480628.076104.084258.139524.121404.197508.121404.282672 0 .42129-.881538 1.0872-1.48131.802716-.722988 2.067492-.761946 1.62174-1.256622-.218346-.242808-.663192-.388674-1.154244-.388674z" opacity=".58"/></g><g fill-rule="nonzero" opacity=".418"><path fill="url(#d)" d="M11.1530921 0c6.1553915 0 11.1530921 4.99770057 11.1530921 11.1530921 0 6.1553915-4.9977006 11.1530921-11.1530921 11.1530921C4.99770057 22.3061842 0 17.3084836 0 11.1530921 0 4.99770057 4.99770057 0 11.1530921 0z" opacity=".4" transform="translate(61.12 957.706)"/><path fill="#FFF" fill-opacity=".43" d="M78.20648069 971.73687868c-.51129789 0-1.07311929.86092057-2.06742192 1.63696164-1.31967401 1.03067954-2.90004931 1.52580992-2.21292961 2.40491894.30718292.39408336.80433423.58607269 1.37828127.58607269.70530817 0 1.52783086-.29303635 2.25536937-.86092057 1.31967401-1.03067955 1.8309719-2.57871981 1.1438522-3.45782883-.16975898-.21624061-.32941327-.30920387-.49715131-.30920387z"/><path fill="#FFF" d="M69.64653878 961.65712997c-.8225227 0-1.70163172.18188462-2.47160997.59415644-.29303634.15763334-.56990516.34962267-.8225227.57596798-1.7905531 1.61271035-1.60664753 4.42990112-.61436585 5.53333452.16975899.18794744.31122481.270806.44056498.270806.63053338 0 .93973724-1.96637491 2.42512835-3.30423738 1.48337017-1.33584153 3.67406945-1.62685693 3.81755621-2.31397663.01818846-.09094231 0-.18996839-.06062821-.29909916-.02627222-.04850257-.06264915-.10104702-.10710983-.1556124-.01010471-.01212565-.02223035-.02223035-.03233505-.03435599-.0101047-.0101047-.0202094-.02425128-.0303141-.03435598l-.00404188-.00404189c-.04648163-.04850256-.09700514-.09498419-.15157053-.13944488-.12529829-.10306795-.26878505-.1960312-.42843934-.27686881-.52342353-.26474318-1.21862699-.41227182-1.96031208-.41227182z" opacity=".58"/></g><g fill-rule="nonzero" opacity=".445"><path fill="url(#d)" d="M9 0c4.9671 0 9 4.0329 9 9s-4.0329 9-9 9-9-4.0329-9-9 4.0329-9 9-9z" opacity=".4" transform="translate(67.035 750.4)"/><path fill="#FFF" fill-opacity=".43" d="M80.8230288 761.7214592c-.4125924 0-.8659548.6947208-1.6683084 1.320948-1.0649124.831708-2.340198 1.231254-1.785726 1.940652.2478816.318006.6490584.472932 1.1122056.472932.5691492 0 1.2328848-.236466 1.8199728-.6947208 1.0649124-.831708 1.4775048-2.0809008.9230328-2.7902988-.1369872-.1744956-.2658204-.2495124-.4011768-.2495124z"/><path fill="#FFF" d="M73.91516 753.5880288c-.9165096 0-1.9227132.2821284-2.658204.9442332-1.4448888 1.3013784-1.296486 3.5747136-.4957632 4.4651304.1369872.1516644.2511432.2185272.3555144.2185272.5088096 0 .758322-1.5867684 1.95696-2.666358 1.4448888-1.3013784 3.7214856-1.3715028 2.919132-2.2619196-.3930228-.4370544-1.1937456-.6996132-2.0776392-.6996132z" opacity=".58"/></g><g fill-rule="nonzero" opacity=".891"><path fill="url(#d)" d="M10.5 0C16.29495 0 21 4.70505 21 10.5S16.29495 21 10.5 21 0 16.29495 0 10.5 4.70505 0 10.5 0z" opacity=".4" transform="translate(86.839 833.938)"/><path fill="#FFF" fill-opacity=".43" d="M102.9250336 847.1477024c-.4813578 0-1.0102806.8105076-1.9463598 1.541106-1.2423978.970326-2.730231 1.436463-2.083347 2.264094.2891952.371007.7572348.551754 1.2975732.551754.6640074 0 1.4383656-.275877 2.1233016-.8105076 1.2423978-.970326 1.7237556-2.4277176 1.0768716-3.2553486-.1598184-.2035782-.3101238-.2910978-.4680396-.2910978z"/><path fill="#FFF" d="M94.86602 837.6575336c-1.0692612 0-2.2431654.3291498-3.101238 1.1016054-1.6857036 1.5182748-1.512567 4.1704992-.5783904 5.2093188.1598184.1769418.2930004.2549484.4147668.2549484.5936112 0 .884709-1.8512298 2.28312-3.110751 1.6857036-1.5182748 4.3417332-1.6000866 3.405654-2.6389062-.4585266-.5098968-1.3927032-.8162154-2.4239124-.8162154z" opacity=".58"/></g><g fill-rule="nonzero" opacity=".877"><path fill="url(#d)" d="M8 0c4.4152 0 8 3.5848 8 8 0 4.4152-3.5848 8-8 8-4.4152 0-8-3.5848-8-8 0-4.4152 3.5848-8 8-8z" opacity=".4" transform="translate(172.544 848.034)"/><path fill="#FFF" fill-opacity=".43" d="M184.8000256 858.0986304c-.3667488 0-.7697376.6175296-1.4829408 1.174176-.9465888.739296-2.080176 1.094448-1.587312 1.725024.2203392.282672.5769408.420384.9886272.420384.5059104 0 1.0958976-.210192 1.6177536-.6175296.9465888-.739296 1.3133376-1.8496896.8204736-2.4802656-.1217664-.1551072-.2362848-.2217888-.3566016-.2217888z"/><path fill="#FFF" d="M178.65992 850.8680256c-.8146752 0-1.7090784.2507808-2.362848.8393184-1.2843456 1.1567808-1.152432 3.1775232-.4406784 3.9690048.1217664.1348128.2232384.1942464.3160128.1942464.4522752 0 .674064-1.4104608 1.73952-2.370096 1.2843456-1.1567808 3.3079872-1.2191136 2.594784-2.0105952-.3493536-.3884928-1.0611072-.6218784-1.8467904-.6218784z" opacity=".58"/></g><g fill-rule="nonzero" opacity=".619"><path fill="url(#d)" d="M3.76514263 0c2.07798222 0 3.76514264 1.68716041 3.76514264 3.76514263S5.84312485 7.53028527 3.76514263 7.53028527 0 5.84312485 0 3.76514263 1.68716041 0 3.76514263 0z" opacity=".4" transform="translate(176.063 543.553)"/><path fill="#FFF" fill-opacity=".43" d="M181.83106793 548.28927139c-.17260769 0-.36227148.29063588-.69793545.55261752-.44550524.34794436-.97901992.5150941-.74705702.81187017.10370107.13303755.27153306.19785072.46529031.19785072.2381031 0 .51577634-.09892536.76138413-.29063588.44550523-.34794436.61811292-.87054315.38615002-1.16731922-.05730849-.0730001-.11120575-.10438331-.16783199-.10438331z"/><path fill="#FFF" d="M178.94105838 544.88645832c-.38342104 0-.80436549.11802818-1.11205747.39501918-.60446804.54443059-.54238385 1.49547851-.20740213 1.86798365.05730849.06344868.10506556.09142068.14872916.09142068.21286008 0 .3172434-.66382326.81869262-1.11546869.60446804-.54443059 1.55688045-.57376707 1.22121648-.94627221-.16442077-.18284135-.49940249-.29268261-.86917866-.29268261z" opacity=".58"/></g><g fill-rule="nonzero" opacity=".677"><path fill="url(#d)" d="M7.17353717 0c3.95907513 0 7.17353713 3.21446201 7.17353713 7.17353717 0 3.95907513-3.214462 7.17353713-7.17353713 7.17353713C3.21446201 14.3470743 0 11.1326123 0 7.17353717 0 3.21446201 3.21446201 0 7.17353717 0z" opacity=".4" transform="translate(52.25 454.448)"/><path fill="#FFF" fill-opacity=".43" d="M63.24034473 463.47213425c-.32886077 0-.69021766.55373394-1.32974137 1.0528744-.84879874.66292092-1.86527748.98138293-1.4233302 1.54681547.19757643.25346976.51733828.37695503.88649424.37695503.45364588 0 .98268277-.18847751 1.45062695-.55373394.84879874-.66292092 1.17765951-1.65860214.73571223-2.22403468-.10918697-.13908341-.21187472-.19887628-.31976185-.19887628z"/><path fill="#FFF" d="M57.73358132 456.9887324c-.73051285 0-1.53251717.22487316-2.11874724.75261021-1.15166261 1.03727626-1.03337672 2.8492601-.39515286 3.55897543.10918697.12088558.20017612.17417922.2833662.17417922.40555162 0 .60442789-1.26474912 1.55981392-2.12524647 1.15166261-1.03727625 2.96624614-1.09316959 2.32672243-1.80288492-.31326263-.34835844-.95148649-.55763348-1.65600245-.55763348z" opacity=".58"/></g><g fill-rule="nonzero" opacity=".854"><path fill="url(#d)" d="M6.86592487 0c3.78930393 0 6.86592483 3.07662093 6.86592483 6.86592487 0 3.78930393-3.0766209 6.86592483-6.86592483 6.86592483C3.07662093 13.7318497 0 10.6552288 0 6.86592487 0 3.07662093 3.07662093 0 6.86592487 0z" opacity=".4" transform="translate(92.774 527.9)"/><path fill="#FFF" fill-opacity=".43" d="M103.292694 536.53750077c-.31475871 0-.66062007.52998898-1.27272001 1.00772552-.81240095.63449385-1.78529152.93929972-1.36229562 1.48048565.18910405.24260059.49515402.36079062.84848001.36079062.43419285 0 .94054382-.18039531 1.38842183-.52998898.81240095-.63449385 1.12715966-1.58747873.70416376-2.12866466-.10450486-.1331193-.20278921-.19034815-.30604997-.19034815z"/><path fill="#FFF" d="M98.02308508 530.33243004c-.69918734 0-1.46680048.21523026-2.0278921.72033713-1.10227755.99279626-.98906394 2.72707944-.3782081 3.40636109.10450487.11570182.19159226.16671015.27121502.16671015.38816094 0 .57850909-1.21051473 1.4929267-2.03411263 1.10227755-.99279626 2.83904895-1.0462928 2.226949-1.72557445-.29982945-.3334203-.91068529-.5337213-1.58499052-.5337213z" opacity=".58"/></g><g fill-rule="nonzero" opacity=".957"><path fill="url(#d)" d="M8.73024113 0c4.81822007 0 8.73024117 3.91202105 8.73024117 8.73024113 0 4.81822007-3.9120211 8.73024117-8.73024117 8.73024117C3.91202105 17.4604823 0 13.5484612 0 8.73024113 0 3.91202105 3.91202105 0 8.73024113 0z" opacity=".4" transform="translate(115.036 636.979)"/><path fill="#FFF" fill-opacity=".43" d="M128.41051622 647.96173395c-.40022569 0-.83999936.67389779-1.61830385 1.28135495-1.03299356.80677904-2.27005476 1.19434937-1.73220206 1.88248443.24045179.30847434.62960404.45875671 1.07886923.45875671.55208997 0 1.19593128-.22937835 1.76542237-.67389778 1.03299356-.80677905 1.43321924-2.01852953.89536655-2.7066646-.13288125-.1692654-.25785291-.24203371-.38915224-.24203371z"/><path fill="#FFF" d="M121.71018317 640.07171699c-.88903887 0-1.86508332.2736721-2.5785291.9159315-1.40158085 1.26237191-1.25762615 3.46756796-.48090359 4.33129611.13288126.14711854.24361564.21197724.3448585.21197724.49355894 0 .73559265-1.53920786 1.89830363-2.58643869 1.40158084-1.26237192 3.60994073-1.33039446 2.83163625-2.19412262-.38124265-.42395447-1.15796522-.67864354-2.01536569-.67864354z" opacity=".58"/></g><g fill-rule="nonzero"><path fill="url(#d)" d="M25.4976581 0c14.0721575 0 25.4976581 11.4255006 25.4976581 25.4976581S39.5698156 50.9953162 25.4976581 50.9953162 0 39.5698156 0 25.4976581 11.4255006 0 25.4976581 0z" opacity=".4" transform="translate(7.842 620.582)"/><path fill="#FFF" fill-opacity=".43" d="M46.9048357 652.65895447c-1.1689044 0-2.4533133 1.96819483-4.72643969 3.74234227-3.0169747 2.35628958-6.62995205 3.48823262-5.05909233 5.49800906.70226669.9009342 1.8388299 1.3398509 3.15095979 1.3398509 1.6124413 0 3.49285283-.6699255 5.15611603-1.9681948 3.0169747-2.3562896 4.1858791-5.89534415 2.6150194-7.90512055-.3880948-.4943588-.7530886-.70688688-1.1365632-.70688688z"/><path fill="#FFF" d="M27.3334742 629.61339658c-1.9450939 0-4.02417295.44353686-5.82604145 1.45535533-.60524301.341893-1.17814479.74846845-1.70484481 1.21972637-4.09347562 3.68690016-3.67303964 10.12742502-1.4045334 12.65004092.38809476.4296763.71150705.6191035 1.00719829.6191035 1.4414948 0 2.14838168-4.4954309 5.54421077-7.5539871 4.0934756-3.68690021 10.5432408-3.88556777 8.2701144-6.40818367-1.1134623-1.23820707-3.3819686-1.98205535-5.8861038-1.98205535z" opacity=".58"/></g><g fill-rule="nonzero" opacity=".718"><path fill="url(#d)" d="M17.7953924 0c9.8212771 0 17.7953924 7.97411535 17.7953924 17.7953924 0 9.8212771-7.9741153 17.7953924-17.7953924 17.7953924C7.97411535 35.5907848 0 27.6166695 0 17.7953924 0 7.97411535 7.97411535 0 17.7953924 0z" opacity=".4" transform="translate(115.123 503.054)"/><path fill="#FFF" fill-opacity=".43" d="M142.38520572 525.44119865c-.81580486 0-1.71222284 1.37364769-3.29868919 2.61186533-2.10561489 1.64450781-4.62719353 2.43451646-3.53085499 3.83718488.49012781.6287824 1.28336099.93511228 2.19912612.93511228 1.12535926 0 2.43774098-.46755614 3.59857002-1.37364769 2.10561492-1.64450781 2.92141972-4.11449404 1.82508122-5.51716246-.27086012-.34502419-.5255976-.49335234-.79323318-.49335234z"/><path fill="#FFF" d="M128.72621779 509.35689295c-1.81218311 0-3.8017151.55784284-5.25597593 1.86700003-2.85692924 2.57317104-2.56349746 7.06815902-.98025563 8.82874972.27086011.2998809.49657687.4320864.70294648.4320864 1.00605183 0 1.49940417-3.13746294 3.86943012-5.27209856 2.85692925-2.57317103 7.35836627-2.71182561 5.77189997-4.47241632-.7771106-.86417273-2.3603524-1.38332127-4.10804501-1.38332127z" opacity=".58"/></g><g fill-rule="nonzero"><path fill="url(#d)" d="M17.8565014 0c9.8550031 0 17.8565013 8.00149826 17.8565013 17.8565014 0 9.8550031-8.0014982 17.8565013-17.8565013 17.8565013C8.00149826 35.7130027 0 27.7115045 0 17.8565014 0 8.00149826 8.00149826 0 17.8565014 0z" opacity=".4" transform="translate(185.674 569.162)"/><path fill="#FFF" fill-opacity=".43" d="M213.03071587 591.62589357c-.81860631 0-1.71810257 1.37836477-3.3100168 2.62083442-2.11284553 1.65015501-4.6430832 2.44287653-3.54297987 3.85036168.49181091.63094162 1.28776803.93832343 2.20667787.93832343 1.12922372 0 2.44611213-.46916172 3.61092742-1.37836477 2.11284551-1.650155 2.93145181-4.12862311 1.83134851-5.53610826-.2717902-.34620899-.52740249-.4950465-.79595713-.4950465z"/><path fill="#FFF" d="M199.32411473 575.48672075c-1.8184061 0-3.8147701.55975846-5.27402482 1.87341127-2.86673987 2.58200724-2.57230045 7.09243088-.98362181 8.85906748.27179024.3009106.4982821.4335701.70536038.4335701 1.00950659 0 1.50455309-3.14823689 3.88271766-5.2902028 2.86673987-2.58200724 7.38363476-2.72113795 5.79172046-4.48777449-.7797791-.86714028-2.3684577-1.38807156-4.12215187-1.38807156z" opacity=".58"/></g><g fill-rule="nonzero" opacity=".755"><path fill="url(#d)" d="M18.0603751 0c9.9675211 0 18.0603752 8.0928541 18.0603752 18.0603751 0 9.9675211-8.0928541 18.0603752-18.0603752 18.0603752C8.0928541 36.1207503 0 28.0278962 0 18.0603751 0 8.0928541 8.0928541 0 18.0603751 0z" opacity=".4" transform="translate(-23.453 717.66)"/><path fill="#FFF" fill-opacity=".43" d="M4.21517737 740.38055695c-.82795261 0-1.73771873 1.39410203-3.34780839 2.65075738-2.13696861 1.66899539-4.69609487 2.47076768-3.58343128 3.89432257.49742608.6381453 1.30247091.9490366 2.23187226.9490366 1.14211646 0 2.47404023-.4745183 3.65215462-1.39410203 2.13696862-1.66899539 2.96492122-4.17576101 1.85225762-5.5993159-.2748934-.35016178-.53342401-.50069862-.80504483-.50069862z"/></g><g fill-rule="nonzero" opacity=".509"><path fill="url(#d)" d="M29.9467849 0c16.5276307 0 29.946785 13.4191543 29.946785 29.9467849 0 16.5276307-13.4191543 29.946785-29.946785 29.946785C13.4191543 59.8935699 0 46.4744156 0 29.9467849 0 13.4191543 13.4191543 0 29.9467849 0z" opacity=".4" transform="translate(206.296 505.966)"/><path fill="#FFF" fill-opacity=".43" d="M252.1747854 543.63977555c-1.3728684 0-2.8813958 2.31162827-5.5511636 4.39534952-3.54341144 2.76744229-7.78682295 4.09689983-5.94186142 6.45736533.82480633 1.0581397 2.15969026 1.5736437 3.70077577 1.5736437 1.89379875 0 4.10232625-.7868219 6.05581485-2.3116283 3.5434114-2.76744229 4.9162799-6.92403208 3.0713183-9.28449756-.455814-.58062025-.8844962-.83023269-1.3348839-.83023269z"/><path fill="#FFF" d="M229.1881651 516.57289184c-3.0496129 0-6.39767545.93875984-8.84496265 3.14186095-4.80775268 4.33023323-4.31395416 11.89457551-1.64961266 14.85736661.45581403.5046513.83565905.7271319 1.18294592.7271319 1.69302352 0 2.52325621-5.2798457 6.51162889-8.8720944 4.8077527-4.33023319 12.3829477-4.56356656 9.7131798-7.52635772-1.3077521-1.45426379-3.9720936-2.32790734-6.9131793-2.32790734z" opacity=".58"/></g></g></g></svg>