<svg xmlns="http://www.w3.org/2000/svg" width="32" height="24" viewBox="0 0 32 24"><path d="M21.9646151,11.7857845 L25.6155668,8.13483275 C26.0143855,7.73601403 26.0113055,7.10315115 25.6190678,6.71091348 C25.2240956,6.31594121 24.5893198,6.32024328 24.1951486,6.71441451 L20.5441968,10.3653662 L16.8932451,6.71441451 C16.4944264,6.3155958 15.8615635,6.31867582 15.4693258,6.71091348 C15.0743536,7.10588576 15.0786556,7.74066152 15.4728269,8.13483275 L19.1237786,11.7857845 L15.4728269,15.4367362 C15.0740082,15.8355549 15.0770882,16.4684178 15.4693258,16.8606555 C15.8642981,17.2556278 16.4990739,17.2513257 16.8932451,16.8571545 L20.5441968,13.2062027 L24.1951486,16.8571545 C24.5939673,17.2559732 25.2268302,17.2528932 25.6190678,16.8606555 C26.0140401,16.4656832 26.009738,15.8309075 25.6155668,15.4367362 L21.9646151,11.7857845 Z M0.8,12 C0.8,9.44215508 10,-5.68434189e-13 11.5127279,-5.68434189e-13 L29.0059793,-5.68434189e-13 C30.6595313,-5.68434189e-13 32,1.34177063 32,2.99109042 L32,21.0089096 C32,22.6608432 30.6527299,24 29.006032,24 C29.006032,24 12.2136086,24 11.5127279,24 C10,24 0.8,14.5578449 0.8,12 Z"/></svg>