<svg width="300" height="120" viewBox="0 0 254 101" version="1.1" xmlns="http://www.w3.org/2000/svg" xmlns:xlink="http://www.w3.org/1999/xlink"><title>layer</title><desc>Created with Sketch.</desc><defs><path d="M10.4863251,2.05199107 C23.3971718,54.4001377 70.6652185,93.2194438 127,93.2194438 C183.703532,93.2194438 231.221244,53.8902759 243.762783,1.02229446" id="path-1"/><mask id="mask-2" maskContentUnits="userSpaceOnUse" maskUnits="objectBoundingBox" x="0" y="0" width="233.276" height="92.197" fill="#fff"><use xlink:href="#path-1"/></mask><rect id="path-3" x="166.573" y="17.978" width="18" height="21.857" rx="3"/><mask id="mask-4" maskContentUnits="userSpaceOnUse" maskUnits="objectBoundingBox" x="0" y="0" width="18" height="21.857" fill="#fff"><use xlink:href="#path-3"/></mask><rect id="path-5" x="92" y="51.571" width="16" height="19.429" rx="3"/><mask id="mask-6" maskContentUnits="userSpaceOnUse" maskUnits="objectBoundingBox" x="0" y="0" width="16" height="19.429" fill="#fff"><use xlink:href="#path-5"/></mask><ellipse id="path-7" cx="161.633" cy="9.5" rx="9.055" ry="9"/><mask id="mask-8" maskContentUnits="userSpaceOnUse" maskUnits="objectBoundingBox" x="0" y="0" width="18.109" height="18" fill="#fff"><use xlink:href="#path-7"/></mask><circle id="path-9" cx="34.078" cy="12" r="5.5"/><mask id="mask-10" maskContentUnits="userSpaceOnUse" maskUnits="objectBoundingBox" x="0" y="0" width="11" height="11" fill="#fff"><use xlink:href="#path-9"/></mask></defs><g id="Page-1" stroke="none" stroke-width="1" fill="none" fill-rule="evenodd"><g id="Launch-favoris" transform="translate(-832.000000, -979.000000)"><g id="videos" transform="translate(959.000000, 1030.000000) scale(1, -1) translate(-959.000000, -1030.000000) translate(832.000000, 979.000000)"><g id="layer"><path d="M0.114212534,0.412572578 C13.0742602,58.5446833 64.9623636,102 127,102 C188.866652,102 240.63964,58.7838917 253.777742,0.892899429" id="bg" fill-opacity=".85" fill="#FFF"/><use id="bg-border" stroke-opacity=".3" stroke="#000" mask="url(#mask-2)" stroke-width="6" stroke-linejoin="round" stroke-dasharray="8,6" xlink:href="#path-1"/><g id="deco-videos" transform="translate(28.000000, 2.000000)"><circle id="Oval_1" fill-opacity=".6" fill="#000" opacity=".2" cx="67.578" cy="66.5" r="5"/><rect id="Rectangle-8" fill="#4DBCAE" transform="translate(12.482751, 14.090218) rotate(26.000000) translate(-12.482751, -14.090218)" x="4.363" y="4.23" width="16.24" height="19.72" rx="3"/><use id="Rectangle-8" stroke="#4DBCAE" mask="url(#mask-4)" stroke-width="4" transform="translate(175.572518, 28.907068) rotate(146.000000) translate(-175.572518, -28.907068)" xlink:href="#path-3"/><use id="Rectangle-8" stroke="#4DBCAE" mask="url(#mask-6)" stroke-width="4" xlink:href="#path-5"/><rect id="Rectangle-8" fill="#4DBCAE" x="88" y="55.571" width="16" height="20" rx="2"/><use id="Oval_1" stroke="#000" mask="url(#mask-8)" stroke-width="6" opacity=".2" xlink:href="#path-7"/><use id="Oval_1" stroke="#000" mask="url(#mask-10)" stroke-width="6" opacity=".2" xlink:href="#path-9"/></g></g></g></g></g></svg>