<svg xmlns="http://www.w3.org/2000/svg" width="368" height="50" viewBox="0 0 368 50"><g fill-rule="evenodd"><path fill-opacity=".702" d="M287,39.0007623 L287,40.9981515 C287,46.5199358 282.527634,50.9962264 277.008425,50.9962264 L91.9915755,50.9962264 C86.4733807,50.9962264 82,46.5150573 82,40.9981515 L82,30.9962264 L0,30.9962264 L0,0.996226415 L368,0.996226415 L368,30.9962264 L287,30.9962264 L287,31.0007623 L294,31.0007623 L294,31.0581202 C290.053688,31.5502183 287,34.9166088 287,38.9962264 C287,38.9977385 287,38.9992505 287.000001,39.0007623 L287,39.0007623 Z M82,38.9962264 L82,30.9962264 L74,30.9962264 C78.418278,30.9962264 82,34.5779484 82,38.9962264 Z" transform="translate(0 -1) translate(0 .004)"/><path fill-rule="nonzero" d="M287,39.0007623 L287,40.9981515 C287,46.5199358 282.527634,50.9962264 277.008425,50.9962264 L91.9915755,50.9962264 C86.4733807,50.9962264 82,46.5150573 82,40.9981515 L82,30.9962264 L0,30.9962264 L0,0.996226415 L368,0.996226415 L368,30.9962264 L287,30.9962264 L287,31.0007623 L294,31.0007623 L294,31.0581202 C290.053688,31.5502183 287,34.9166088 287,38.9962264 C287,38.9977385 287,38.9992505 287.000001,39.0007623 L287,39.0007623 Z M82,38.9962264 L82,30.9962264 L74,30.9962264 C78.418278,30.9962264 82,34.5779484 82,38.9962264 Z" transform="translate(0 -1) translate(0 .004)"/></g></svg>